<svg width="39" height="57" viewBox="0 0 39 57" fill="none" xmlns="http://www.w3.org/2000/svg">
<path d="M19.8161 0.89108C20.6829 1.14679 21.4393 1.68625 21.9735 2.42955C22.5085 3.17396 22.7933 4.08594 22.7813 5.03152L22.7814 5.0337L22.7073 17.3745L22.7086 17.374C22.7081 17.3874 22.7079 17.4008 22.7081 17.4142L22.7068 17.4148C22.691 18.1387 22.5016 18.8539 22.1544 19.4955C21.8073 20.1369 21.3136 20.6842 20.7195 21.0886L20.7182 21.0891C20.6382 21.1441 20.5551 21.1938 20.4697 21.2385L14.2594 24.4713L14.0261 24.5932L14.0455 24.8563C14.3095 28.4122 15.8962 32.66 18.0144 35.4755L18.1854 35.7036L18.4572 35.6155L25.0029 33.4892L25.0024 33.4879C25.0922 33.4597 25.1836 33.4378 25.2753 33.4195C25.9726 33.2795 26.6867 33.3201 27.3517 33.5374C27.9335 33.7276 28.4632 34.0482 28.9041 34.475L29.0876 34.6649L29.1145 34.6936L29.1141 34.6945L37.0437 43.6925L37.0456 43.6955C37.6543 44.3753 38.0303 45.2476 38.1143 46.1855C38.1982 47.1224 37.986 48.0729 37.5078 48.8957C35.7559 51.8381 33.0422 54.0532 29.8773 55.1303C26.7129 56.2071 23.3137 56.0729 20.3128 54.7571L20.3119 54.7568C3.26783 47.3166 -4.31625 26.8047 3.45 9.01317L3.71832 8.43023C5.12073 5.55455 7.42162 3.22079 10.2464 1.82098C13.2592 0.328046 16.6609 1.04558e-05 19.8166 0.892365L19.8161 0.89108ZM17.6742 5.47566C15.6979 5.10393 13.6401 5.44318 11.8434 6.43288C10.0475 7.42219 8.61918 9.00218 7.79259 10.9088L7.79219 10.9097C4.59884 18.2485 4.3288 26.5062 7.04626 33.8727C9.76401 41.2398 15.2485 47.1145 22.2997 50.203L22.3001 50.2021C24.1375 51.0102 26.2053 51.1391 28.1592 50.5689C30.1132 49.9986 31.8358 48.7643 33.0418 47.0752L33.226 46.8167L33.0159 46.578L25.9418 38.5566L25.7676 38.3601L25.5181 38.4409L18.9407 40.5714L18.9373 40.572C18.8486 40.6017 18.7578 40.6262 18.6668 40.6447C17.9431 40.7889 17.2023 40.7387 16.5168 40.5001C15.8309 40.2612 15.2218 39.8406 14.749 39.2798L14.7481 39.2794C11.5956 35.4711 9.37703 29.5196 9.24126 24.4918C9.22504 23.7369 9.39913 22.9835 9.74702 22.3055C10.0518 21.7115 10.4803 21.1937 10.9988 20.7901L11.2268 20.6243C11.2675 20.5964 11.3091 20.5696 11.3512 20.5443L11.4795 20.4725L17.7266 17.2142L17.9403 17.1029L17.9413 16.8615L18.0005 5.87061L18.0023 5.53684L17.6742 5.47566Z" fill="#F0F2F2" stroke="black" stroke-width="0.8"/>
</svg>
