<svg width="53" height="42" viewBox="0 0 53 42" fill="none" xmlns="http://www.w3.org/2000/svg">
<path d="M2.94434 0.400391H50.0557C50.728 0.400419 51.3748 0.672415 51.8525 1.15918C52.3303 1.64619 52.5996 2.30823 52.5996 3V37C52.5996 38.2222 52.1233 39.3928 51.2773 40.2549C50.4315 41.1167 49.2857 41.5996 48.0928 41.5996H4.90723C3.71429 41.5996 2.56852 41.1167 1.72266 40.2549C0.876699 39.3928 0.400391 38.2222 0.400391 37V3C0.400391 2.30822 0.669662 1.64619 1.14746 1.15918C1.62521 0.672415 2.27198 0.40042 2.94434 0.400391ZM46.8379 9.52734L28.2168 26.9199C27.7471 27.3587 27.1345 27.6016 26.5 27.6016C25.8655 27.6016 25.2529 27.3587 24.7832 26.9199L6.16211 9.52734L5.48926 8.89941V36.4004H47.5107V8.89941L46.8379 9.52734ZM10.2412 6.29199L26.2266 21.2227L26.5 21.4775L26.7734 21.2227L42.7588 6.29199L43.5 5.59961H9.5L10.2412 6.29199Z" fill="#F0F2F2" stroke="black" stroke-width="0.8"/>
</svg>
