<svg xmlns="http://www.w3.org/2000/svg" height="40px" viewBox="0 -960 960 960" width="40px" fill="#000000"><path d="M840-682v495.33q0 27-19.83 46.84Q800.33-120 773.33-120H186.67q-27 0-46.84-19.83Q120-159.67 120-186.67v-586.66q0-27 19.83-46.84Q159.67-840 186.67-840H682l158 158Zm-66.67 29.33L652.67-773.33h-466v586.66h586.66v-466Zm-216 377.49q32-31.84 32-77.33 0-45.49-31.84-77.49-31.84-32-77.33-32-45.49 0-77.49 31.84-32 31.85-32 77.34t31.84 77.49q31.84 32 77.33 32 45.49 0 77.49-31.85ZM235.33-576H594v-148.67H235.33V-576Zm-48.66-76.67v466-586.66 120.66Z"/>
<path d="M760.4-103.6 784.4-79.3 808.7-55.3ZL808.7-55.3ZM808.6-55.4 855.6-102.4 102.3-855.7 55.3-808.7 361-502 503-360 808.7-55.3Z"/></svg>
