<svg xmlns="http://www.w3.org/2000/svg" height="40px" viewBox="0 -960 960 960" width="40px" fill="#000000"><path d="M358.67-226.67ZM38.67-160v-100q0-34.67 17.83-63.17T105.33-366q69.34-31.67 129.67-46.17 60.33-14.5 123.67-14.5 38.66 0 75.16 5.17t75.84 17.17q-10.34 13.66-17.84 28.5Q484.33-361 479-345q-31-9-59.83-12-28.84-3-60.5-3-56.67 0-108 11.83-51.34 11.84-117.34 42.17-12.33 5.67-20.16 18.67-7.84 13-7.84 27.33v33.33h366.34q4 18 10.66 34.67Q489-175.33 498-160H38.67ZM249-524.33Q205.33-568 205.33-634T249-743.67q43.67-43.66 109.67-43.66t109.66 43.66Q512-700 512-634t-43.67 109.67q-43.66 43.66-109.66 43.66T249-524.33Zm439.33 0q-43.66 43.66-109.66 43.66-11 0-25.67-1.83-14.67-1.83-25.67-5.5 25-27.33 38.17-64.67Q578.67-590 578.67-634t-13.17-80q-13.17-36-38.17-66 12-3.67 25.67-5.5 13.67-1.83 25.67-1.83 66 0 109.66 43.66Q732-700 732-634t-43.67 109.67ZM420.5-572.17Q445.33-597 445.33-634t-24.83-61.83q-24.83-24.84-61.83-24.84t-61.84 24.84Q272-671 272-634t24.83 61.83q24.84 24.84 61.84 24.84t61.83-24.84ZM358.67-634Zm389.5 423.33q24.83-24 25.16-62.66.34-36.67-24.83-61.67-25.17-25-61.83-25Q650-360 625-335t-25 61.67q0 36.66 25 61.66t61.67 25q36.66 0 61.5-24ZM686.67-120q-63.34 0-108.34-45t-45-108.33q0-64 45-108.67t108.34-44.67q64 0 108.66 44.67Q840-337.33 840-273.33q0 23-6.17 43.83-6.16 20.83-17.83 38.83L917.33-89.33l-44 44L772-146q-18.67 13-39.83 19.5-21.17 6.5-45.5 6.5Z"/></svg>