<svg xmlns="http://www.w3.org/2000/svg" height="40px" viewBox="0 -960 960 960" width="40px" fill="#000000"><path d="M385.67-485.73q-39-39.07-39-94.34 0-55.26 39.06-94.26 39.07-39 94.34-39 55.26 0 94.26 39.06 39 39.07 39 94.34 0 55.26-39.06 94.26-39.07 39-94.34 39-55.26 0-94.26-39.06Zm141.5-47.02q19.5-19.43 19.5-47.17 0-27.75-19.42-47.25-19.43-19.5-47.17-19.5-27.75 0-47.25 19.42-19.5 19.43-19.5 47.17 0 27.75 19.42 47.25 19.43 19.5 47.17 19.5 27.75 0 47.25-19.42ZM480-60 120-280v-400l360-220 360 220v400L480-60Zm0-78.33L640.33-236q-34.66-25.33-75.83-38-41.17-12.67-84.5-12.67T395.5-274q-41.17 12.67-75.83 38L480-138.33ZM256-275q48.67-36.67 105.67-57.5T480-353.33q61.33 0 118.33 20.83T704-275l69.33-41v-326.49L480-822 186.67-642.49V-316L256-275Zm224-205.67Z"/></svg>