<svg xmlns="http://www.w3.org/2000/svg" height="40px" viewBox="0 -960 960 960" width="40px" fill="#000000"><path d="M645.33-534.67v-66.66H880v66.66H645.33Zm-395 10.34Q206.67-568 206.67-634t43.66-109.67Q294-787.33 360-787.33t109.67 43.66Q513.33-700 513.33-634t-43.66 109.67Q426-480.67 360-480.67t-109.67-43.66ZM40-160v-100q0-34.67 17.5-63.17T106.67-366q70.66-32.33 131-46.5Q298-426.67 360-426.67t122 14.17q60 14.17 130.67 46.5 31.66 15 49.5 43.17Q680-294.67 680-260v100H40Zm66.67-66.67h506.66V-260q0-14.33-7.83-27t-20.83-19q-65.34-31-116.34-42.5T360-360q-57.33 0-108.67 11.5Q200-337 134.67-306q-13 6.33-20.5 19t-7.5 27v33.33Zm315.16-345.5Q446.67-597 446.67-634t-24.84-61.83Q397-720.67 360-720.67t-61.83 24.84Q273.33-671 273.33-634t24.84 61.83Q323-547.33 360-547.33t61.83-24.84ZM360-634Zm0 407.33Z"/></svg>