<svg xmlns="http://www.w3.org/2000/svg" height="40px" viewBox="0 -960 960 960" width="40px" fill="#000000"><path d="M541.33-693.33V-760H880v66.67H541.33Zm0 160V-600H880v66.67H541.33Zm0 160V-440H880v66.67H541.33Zm-306-62.67q-34-34-34-84.67 0-50.66 34-84.66t84.67-34q50.67 0 84.67 34t34 84.66q0 50.67-34 84.67T320-402q-50.67 0-84.67-34ZM80-160v-69.33q0-19.67 9.33-37.34 9.34-17.66 25.34-26 45-30.33 97.5-45.16 52.5-14.84 107.83-14.84t107.5 15.84q52.17 15.83 97.83 44.16 15.34 10.34 25 27Q560-249 560-229.33V-160H80Zm65.33-74v7.33h349.34V-234Q457-258 410-272t-90-14q-43 0-90.33 14-47.34 14-84.34 38ZM357.5-483.17q14.5-14.5 14.5-37.5t-14.5-37.5q-14.5-14.5-37.5-14.5t-37.5 14.5q-14.5 14.5-14.5 37.5t14.5 37.5q14.5 14.5 37.5 14.5t37.5-14.5Zm-37.5-37.5Zm0 294Z"/></svg>